<?xml version="1.0" standalone="no"?>
<!DOCTYPE svg PUBLIC "-//W3C//DTD SVG 20010904//EN"
 "http://www.w3.org/TR/2001/REC-SVG-20010904/DTD/svg10.dtd">
<svg version="1.0" xmlns="http://www.w3.org/2000/svg"
 width="500.000000pt" height="500.000000pt" viewBox="0 0 500.000000 500.000000"
 preserveAspectRatio="xMidYMid meet">

<g transform="translate(0.000000,500.000000) scale(0.100000,-0.100000)"
fill="#000000" stroke="none">
<path d="M2230 4610 c-368 -51 -731 -200 -1017 -418 -379 -289 -665 -724 -776
-1182 -79 -322 -79 -687 -3 -1005 99 -408 323 -789 626 -1064 315 -287 682
-466 1095 -537 127 -22 416 -29 556 -15 407 42 803 204 1115 457 441 357 721
870 784 1439 68 611 -161 1262 -600 1704 -318 321 -697 521 -1150 607 -99 18
-526 28 -630 14z m559 -135 c326 -49 632 -175 889 -365 269 -200 468 -439 613
-735 201 -412 254 -899 145 -1350 -137 -565 -535 -1058 -1061 -1316 -280 -136
-557 -199 -880 -199 -265 0 -473 37 -700 125 -235 90 -415 198 -604 360 -808
696 -920 1918 -252 2750 176 220 384 392 631 523 240 127 475 194 795 226 76
8 320 -3 424 -19z"/>
<path d="M2182 3732 c-141 -51 -230 -203 -203 -347 27 -147 148 -292 394 -474
l98 -72 -1 -200 c-1 -109 -3 -199 -4 -199 -1 0 -27 25 -58 54 -91 89 -202 135
-355 151 -69 7 -73 6 -99 -20 -26 -26 -26 -27 -22 -143 8 -179 56 -283 175
-374 73 -55 146 -84 268 -107 l90 -16 5 -40 c6 -44 38 -69 75 -59 40 12 45 32
45 176 0 135 0 138 23 142 12 2 53 9 91 16 142 23 289 118 354 229 40 68 62
163 62 267 0 79 -3 95 -22 119 -21 27 -23 28 -104 21 -149 -11 -258 -58 -356
-154 l-48 -46 0 95 0 94 93 65 c135 94 303 266 352 360 38 71 40 79 40 165 0
104 -20 156 -84 221 -62 64 -122 88 -216 89 -93 0 -147 -20 -209 -79 l-39 -37
-36 35 c-81 77 -205 105 -309 68z m176 -126 c53 -28 85 -72 102 -143 13 -55
21 -70 42 -81 21 -9 32 -10 52 -1 27 13 30 19 41 84 27 166 249 213 330 70 45
-79 41 -136 -17 -231 -52 -87 -222 -246 -350 -328 -32 -21 -41 -17 -148 64
-249 189 -344 338 -296 463 28 73 90 116 169 117 26 0 60 -6 75 -14z m642
-888 c0 -7 -5 -42 -10 -77 -29 -173 -147 -277 -353 -306 l-48 -7 6 28 c43 191
150 314 314 359 61 17 91 18 91 3z m-823 -228 c142 -49 234 -163 277 -342 6
-26 4 -28 -22 -28 -15 0 -55 7 -87 15 -179 46 -270 147 -290 323 l-7 63 38 -7
c22 -3 62 -14 91 -24z"/>
<path d="M1327 1939 c-8 -19 -27 -63 -42 -99 -15 -36 -32 -71 -39 -79 -6 -8
-39 -73 -72 -145 l-62 -131 -41 -3 -41 -3 0 -55 0 -54 595 0 595 0 0 -35 0
-35 310 0 310 0 0 35 0 35 570 0 570 0 0 54 c0 52 -1 55 -27 58 -24 3 -29 13
-71 138 -25 74 -49 137 -53 140 -5 3 -28 51 -52 105 l-43 100 -85 3 c-46 2
-158 -4 -248 -13 -380 -36 -670 -127 -812 -254 l-54 -48 -49 44 c-169 151
-539 253 -988 270 l-156 6 -15 -34z"/>
</g>
</svg>
